<?xml version="1.0" encoding="utf-8"?>
<!-- Generator: Adobe Illustrator 16.0.0, SVG Export Plug-In . SVG Version: 6.00 Build 0)  -->
<!DOCTYPE svg PUBLIC "-//W3C//DTD SVG 1.1//EN" "http://www.w3.org/Graphics/SVG/1.1/DTD/svg11.dtd">
<svg version="1.1" id="Layer_1" xmlns="http://www.w3.org/2000/svg" xmlns:xlink="http://www.w3.org/1999/xlink" x="0px" y="0px"
	 width="300px" height="280px" viewBox="0 0 300 280" style="enable-background:new 0 0 300 280;" xml:space="preserve">
<style type="text/css">
<![CDATA[
	.st0{clip-path:url(#SVGID_2_);fill-rule:evenodd;clip-rule:evenodd;fill:#FFFFFF;}
	.st1{clip-path:url(#SVGID_2_);fill-rule:evenodd;clip-rule:evenodd;fill:#32347E;}
]]>
</style>
<g>
	<defs>
		<rect id="SVGID_1_" width="300" height="280"/>
	</defs>
	<clipPath id="SVGID_2_">
		<use xlink:href="#SVGID_1_"  style="overflow:visible;"/>
	</clipPath>
	<path class="st1" d="M42,231.8h179.1L258,48.2c-17.4,0.8-38.3,1.5-55.7,2.3c-14.9,0.7-21,8.7-31,21.7L61.9,213.4
		C56.3,220.5,50,226.1,42,231.8"/>
	<path class="st0" d="M112.2,150.8l27.9-35.7c2.3,0.4,4.1,1.1,5.3,2.4l0-4.6l22-2.4l8.4,84.1c1.4,14.4-5.6,23.9-27.6,26.4
		c-11.7,1.3-22.1-0.1-31.9-3.6l6-13.2c25.1,6.8,33.2-2.2,29.5-11.3c-3.2,3.6-6.2,6.2-11.7,7.2c-10.2,1.8-22.3-0.5-24.4-18.9
		L112.2,150.8z M146.2,134l4.3,43.5c0.7,7.1-10.1,8.2-10.8,1.1l-4.3-43.5C134.7,128,145.5,126.9,146.2,134"/>
	<path class="st0" d="M196.6,106.7l14.3-1.4c12.5-1.2,23.4,8,25,20.5l2.2,18.4l-11.3,58.1c-1.4,0.4-4.6,2-6.1,2.2l-13.8,1.5
		c-12.5,1.4-24.3-8.1-25.5-20.6l-5.3-53.8C174.9,119.2,184.1,108,196.6,106.7 M211.2,127.3l5.4,54.8c0.7,7-9.8,8-10.5,1l-5.4-54.8
		C200,121.4,210.5,120.3,211.2,127.3 M202.3,204l1.4-14.6l3.7-0.3l3.1,14.2l-2.9,0.2l-0.4-2.6l-1.9,0.1l-0.1,2.6L202.3,204z
		 M205.4,198.5l1.3-0.1L206,194c0-0.3-0.1-0.6-0.1-0.9c0-0.3-0.1-0.8-0.2-1.5c0,0.4,0,0.8,0,1.2c0,0.4,0,0.8-0.1,1.3L205.4,198.5z
		 M212.3,203.1l-0.9-14.4l3.3-0.2l0.9,14.4L212.3,203.1z M220.4,193.8c0.6-0.1,1.1-0.2,1.3-0.4c0.2-0.2,0.3-0.5,0.3-1l0-0.8
		c0-0.5-0.2-0.8-0.4-1c-0.2-0.2-0.6-0.2-1.2-0.2l-0.1,0L220.4,193.8z M218,202.6l-0.8-14.4l4.1-0.3c1.1-0.1,1.9,0.1,2.5,0.6
		s0.9,1.2,0.9,2.3l0,0.1l0,0.8c0,0.8,0,1.3-0.3,1.8c-0.2,0.4-0.6,0.8-1.2,1.1c0.6,0.2,1,0.4,1.3,0.8c0.3,0.4,0.4,1,0.5,1.8l0.2,3.3
		c0,0.4,0.1,0.7,0.1,0.9c0.1,0.2,0.1,0.4,0.2,0.6l-2.9,0.2c-0.1-0.1-0.1-0.3-0.2-0.6c0-0.2-0.1-0.6-0.1-1.1l-0.2-2.8
		c0-0.8-0.2-1.3-0.4-1.5c-0.2-0.2-0.7-0.3-1.3-0.3l0.3,6.3L218,202.6z"/>
</g>
</svg>
